<mxfile host="app.diagrams.net" modified="2021-03-05T01:16:19.960Z" agent="5.0 (Windows NT 10.0; Win64; x64) AppleWebKit/537.36 (KHTML, like Gecko) Chrome/88.0.4324.190 Safari/537.36" etag="53qHQhwCrU6skBaMI-wc" version="14.4.3" type="github">
  <diagram id="ZqOj3_931ATZuimmtgUu" name="第 1 页">
    <mxGraphModel dx="1422" dy="746" grid="1" gridSize="10" guides="1" tooltips="1" connect="1" arrows="1" fold="1" page="1" pageScale="1" pageWidth="827" pageHeight="1169" math="0" shadow="0">
      <root>
        <mxCell id="0" />
        <mxCell id="1" parent="0" />
        <mxCell id="E4WLFZ2hf0M_Z9qAOI7j-53" value="" style="group" vertex="1" connectable="0" parent="1">
          <mxGeometry x="134" y="70" width="560" height="320" as="geometry" />
        </mxCell>
        <mxCell id="E4WLFZ2hf0M_Z9qAOI7j-2" value="" style="whiteSpace=wrap;html=1;aspect=fixed;" vertex="1" parent="E4WLFZ2hf0M_Z9qAOI7j-53">
          <mxGeometry y="129.48348837209303" width="56" height="56" as="geometry" />
        </mxCell>
        <mxCell id="E4WLFZ2hf0M_Z9qAOI7j-4" value="" style="whiteSpace=wrap;html=1;aspect=fixed;" vertex="1" parent="E4WLFZ2hf0M_Z9qAOI7j-53">
          <mxGeometry x="94.5" y="122.79069767441861" width="56" height="56" as="geometry" />
        </mxCell>
        <mxCell id="E4WLFZ2hf0M_Z9qAOI7j-5" value="" style="whiteSpace=wrap;html=1;aspect=fixed;" vertex="1" parent="E4WLFZ2hf0M_Z9qAOI7j-53">
          <mxGeometry x="100.1" y="129.48837209302326" width="56" height="56" as="geometry" />
        </mxCell>
        <mxCell id="E4WLFZ2hf0M_Z9qAOI7j-6" value="" style="whiteSpace=wrap;html=1;aspect=fixed;" vertex="1" parent="E4WLFZ2hf0M_Z9qAOI7j-53">
          <mxGeometry x="105" y="133.95348837209303" width="56" height="56" as="geometry" />
        </mxCell>
        <mxCell id="E4WLFZ2hf0M_Z9qAOI7j-7" value="" style="whiteSpace=wrap;html=1;aspect=fixed;" vertex="1" parent="E4WLFZ2hf0M_Z9qAOI7j-53">
          <mxGeometry x="109.19999999999999" y="138.41860465116278" width="56" height="56" as="geometry" />
        </mxCell>
        <mxCell id="E4WLFZ2hf0M_Z9qAOI7j-14" value="" style="endArrow=classic;html=1;" edge="1" parent="E4WLFZ2hf0M_Z9qAOI7j-53">
          <mxGeometry width="50" height="50" relative="1" as="geometry">
            <mxPoint x="128.45" y="122.79069767441861" as="sourcePoint" />
            <mxPoint x="128.45" y="100.46511627906976" as="targetPoint" />
          </mxGeometry>
        </mxCell>
        <mxCell id="E4WLFZ2hf0M_Z9qAOI7j-17" value="" style="whiteSpace=wrap;html=1;aspect=fixed;" vertex="1" parent="E4WLFZ2hf0M_Z9qAOI7j-53">
          <mxGeometry x="203" y="122.79069767441861" width="56" height="56" as="geometry" />
        </mxCell>
        <mxCell id="E4WLFZ2hf0M_Z9qAOI7j-18" value="" style="whiteSpace=wrap;html=1;aspect=fixed;" vertex="1" parent="E4WLFZ2hf0M_Z9qAOI7j-53">
          <mxGeometry x="208.6" y="129.48837209302326" width="56" height="56" as="geometry" />
        </mxCell>
        <mxCell id="E4WLFZ2hf0M_Z9qAOI7j-19" value="" style="whiteSpace=wrap;html=1;aspect=fixed;" vertex="1" parent="E4WLFZ2hf0M_Z9qAOI7j-53">
          <mxGeometry x="213.5" y="133.95348837209303" width="56" height="56" as="geometry" />
        </mxCell>
        <mxCell id="E4WLFZ2hf0M_Z9qAOI7j-20" value="" style="whiteSpace=wrap;html=1;aspect=fixed;" vertex="1" parent="E4WLFZ2hf0M_Z9qAOI7j-53">
          <mxGeometry x="217.7" y="138.41860465116278" width="56" height="56" as="geometry" />
        </mxCell>
        <mxCell id="E4WLFZ2hf0M_Z9qAOI7j-21" value="" style="whiteSpace=wrap;html=1;aspect=fixed;" vertex="1" parent="E4WLFZ2hf0M_Z9qAOI7j-53">
          <mxGeometry x="91.35" y="14.883720930232558" width="56" height="56" as="geometry" />
        </mxCell>
        <mxCell id="E4WLFZ2hf0M_Z9qAOI7j-22" value="" style="whiteSpace=wrap;html=1;aspect=fixed;" vertex="1" parent="E4WLFZ2hf0M_Z9qAOI7j-53">
          <mxGeometry x="96.94999999999999" y="21.58139534883721" width="56" height="56" as="geometry" />
        </mxCell>
        <mxCell id="E4WLFZ2hf0M_Z9qAOI7j-23" value="" style="whiteSpace=wrap;html=1;aspect=fixed;" vertex="1" parent="E4WLFZ2hf0M_Z9qAOI7j-53">
          <mxGeometry x="101.85" y="26.046511627906977" width="56" height="56" as="geometry" />
        </mxCell>
        <mxCell id="E4WLFZ2hf0M_Z9qAOI7j-24" value="" style="whiteSpace=wrap;html=1;aspect=fixed;" vertex="1" parent="E4WLFZ2hf0M_Z9qAOI7j-53">
          <mxGeometry x="106.05" y="30.511627906976745" width="56" height="56" as="geometry" />
        </mxCell>
        <mxCell id="E4WLFZ2hf0M_Z9qAOI7j-25" value="" style="whiteSpace=wrap;html=1;aspect=fixed;" vertex="1" parent="E4WLFZ2hf0M_Z9qAOI7j-53">
          <mxGeometry x="150.5" y="230.69767441860463" width="56" height="56" as="geometry" />
        </mxCell>
        <mxCell id="E4WLFZ2hf0M_Z9qAOI7j-26" value="" style="whiteSpace=wrap;html=1;aspect=fixed;" vertex="1" parent="E4WLFZ2hf0M_Z9qAOI7j-53">
          <mxGeometry x="156.1" y="237.3953488372093" width="56" height="56" as="geometry" />
        </mxCell>
        <mxCell id="E4WLFZ2hf0M_Z9qAOI7j-27" value="" style="whiteSpace=wrap;html=1;aspect=fixed;" vertex="1" parent="E4WLFZ2hf0M_Z9qAOI7j-53">
          <mxGeometry x="161" y="241.86046511627907" width="56" height="56" as="geometry" />
        </mxCell>
        <mxCell id="E4WLFZ2hf0M_Z9qAOI7j-28" value="" style="whiteSpace=wrap;html=1;aspect=fixed;" vertex="1" parent="E4WLFZ2hf0M_Z9qAOI7j-53">
          <mxGeometry x="165.2" y="246.32558139534882" width="56" height="56" as="geometry" />
        </mxCell>
        <mxCell id="E4WLFZ2hf0M_Z9qAOI7j-29" value="" style="whiteSpace=wrap;html=1;aspect=fixed;" vertex="1" parent="E4WLFZ2hf0M_Z9qAOI7j-53">
          <mxGeometry x="264.59999999999997" y="230.69767441860463" width="56" height="56" as="geometry" />
        </mxCell>
        <mxCell id="E4WLFZ2hf0M_Z9qAOI7j-30" value="" style="whiteSpace=wrap;html=1;aspect=fixed;" vertex="1" parent="E4WLFZ2hf0M_Z9qAOI7j-53">
          <mxGeometry x="270.2" y="237.3953488372093" width="56" height="56" as="geometry" />
        </mxCell>
        <mxCell id="E4WLFZ2hf0M_Z9qAOI7j-31" value="" style="whiteSpace=wrap;html=1;aspect=fixed;" vertex="1" parent="E4WLFZ2hf0M_Z9qAOI7j-53">
          <mxGeometry x="275.09999999999997" y="241.86046511627907" width="56" height="56" as="geometry" />
        </mxCell>
        <mxCell id="E4WLFZ2hf0M_Z9qAOI7j-32" value="" style="whiteSpace=wrap;html=1;aspect=fixed;" vertex="1" parent="E4WLFZ2hf0M_Z9qAOI7j-53">
          <mxGeometry x="279.29999999999995" y="246.32558139534882" width="56" height="56" as="geometry" />
        </mxCell>
        <mxCell id="E4WLFZ2hf0M_Z9qAOI7j-35" value="" style="endArrow=classic;html=1;" edge="1" parent="E4WLFZ2hf0M_Z9qAOI7j-53">
          <mxGeometry width="50" height="50" relative="1" as="geometry">
            <mxPoint x="245.7" y="197.95348837209303" as="sourcePoint" />
            <mxPoint x="245.7" y="220.27906976744185" as="targetPoint" />
          </mxGeometry>
        </mxCell>
        <mxCell id="E4WLFZ2hf0M_Z9qAOI7j-36" value="" style="endArrow=none;dashed=1;html=1;dashPattern=1 3;strokeWidth=2;" edge="1" parent="E4WLFZ2hf0M_Z9qAOI7j-53">
          <mxGeometry width="50" height="50" relative="1" as="geometry">
            <mxPoint x="232.04999999999998" y="289.48837209302326" as="sourcePoint" />
            <mxPoint x="250.95" y="289.48837209302326" as="targetPoint" />
          </mxGeometry>
        </mxCell>
        <mxCell id="E4WLFZ2hf0M_Z9qAOI7j-37" value="" style="rounded=1;whiteSpace=wrap;html=1;fillColor=none;" vertex="1" parent="E4WLFZ2hf0M_Z9qAOI7j-53">
          <mxGeometry x="73.14999999999999" width="109.89999999999999" height="96.74418604651163" as="geometry" />
        </mxCell>
        <mxCell id="E4WLFZ2hf0M_Z9qAOI7j-39" value="" style="rounded=1;whiteSpace=wrap;html=1;fillColor=none;" vertex="1" parent="E4WLFZ2hf0M_Z9qAOI7j-53">
          <mxGeometry x="142.1" y="223.25581395348837" width="207.89999999999998" height="96.74418604651163" as="geometry" />
        </mxCell>
        <mxCell id="E4WLFZ2hf0M_Z9qAOI7j-40" value="" style="whiteSpace=wrap;html=1;aspect=fixed;" vertex="1" parent="E4WLFZ2hf0M_Z9qAOI7j-53">
          <mxGeometry x="316.4" y="122.79069767441861" width="56" height="56" as="geometry" />
        </mxCell>
        <mxCell id="E4WLFZ2hf0M_Z9qAOI7j-41" value="" style="whiteSpace=wrap;html=1;aspect=fixed;" vertex="1" parent="E4WLFZ2hf0M_Z9qAOI7j-53">
          <mxGeometry x="322" y="129.48837209302326" width="56" height="56" as="geometry" />
        </mxCell>
        <mxCell id="E4WLFZ2hf0M_Z9qAOI7j-42" value="" style="whiteSpace=wrap;html=1;aspect=fixed;" vertex="1" parent="E4WLFZ2hf0M_Z9qAOI7j-53">
          <mxGeometry x="326.9" y="133.95348837209303" width="56" height="56" as="geometry" />
        </mxCell>
        <mxCell id="E4WLFZ2hf0M_Z9qAOI7j-43" value="" style="whiteSpace=wrap;html=1;aspect=fixed;" vertex="1" parent="E4WLFZ2hf0M_Z9qAOI7j-53">
          <mxGeometry x="331.09999999999997" y="138.41860465116278" width="56" height="56" as="geometry" />
        </mxCell>
        <mxCell id="E4WLFZ2hf0M_Z9qAOI7j-44" value="" style="whiteSpace=wrap;html=1;aspect=fixed;" vertex="1" parent="E4WLFZ2hf0M_Z9qAOI7j-53">
          <mxGeometry x="430.5" y="122.79069767441861" width="56" height="56" as="geometry" />
        </mxCell>
        <mxCell id="E4WLFZ2hf0M_Z9qAOI7j-45" value="" style="whiteSpace=wrap;html=1;aspect=fixed;" vertex="1" parent="E4WLFZ2hf0M_Z9qAOI7j-53">
          <mxGeometry x="436.09999999999997" y="129.48837209302326" width="56" height="56" as="geometry" />
        </mxCell>
        <mxCell id="E4WLFZ2hf0M_Z9qAOI7j-46" value="" style="whiteSpace=wrap;html=1;aspect=fixed;" vertex="1" parent="E4WLFZ2hf0M_Z9qAOI7j-53">
          <mxGeometry x="441" y="133.95348837209303" width="56" height="56" as="geometry" />
        </mxCell>
        <mxCell id="E4WLFZ2hf0M_Z9qAOI7j-47" value="" style="whiteSpace=wrap;html=1;aspect=fixed;" vertex="1" parent="E4WLFZ2hf0M_Z9qAOI7j-53">
          <mxGeometry x="445.2" y="138.41860465116278" width="56" height="56" as="geometry" />
        </mxCell>
        <mxCell id="E4WLFZ2hf0M_Z9qAOI7j-48" value="" style="endArrow=none;dashed=1;html=1;dashPattern=1 3;strokeWidth=2;" edge="1" parent="E4WLFZ2hf0M_Z9qAOI7j-53">
          <mxGeometry width="50" height="50" relative="1" as="geometry">
            <mxPoint x="397.95" y="181.58139534883722" as="sourcePoint" />
            <mxPoint x="416.84999999999997" y="181.58139534883722" as="targetPoint" />
          </mxGeometry>
        </mxCell>
        <mxCell id="E4WLFZ2hf0M_Z9qAOI7j-52" style="edgeStyle=orthogonalEdgeStyle;rounded=0;orthogonalLoop=1;jettySize=auto;html=1;exitX=1;exitY=0.5;exitDx=0;exitDy=0;" edge="1" parent="E4WLFZ2hf0M_Z9qAOI7j-53" source="E4WLFZ2hf0M_Z9qAOI7j-49">
          <mxGeometry relative="1" as="geometry">
            <mxPoint x="560" y="163.72093023255815" as="targetPoint" />
          </mxGeometry>
        </mxCell>
        <mxCell id="E4WLFZ2hf0M_Z9qAOI7j-49" value="" style="rounded=1;whiteSpace=wrap;html=1;fillColor=none;" vertex="1" parent="E4WLFZ2hf0M_Z9qAOI7j-53">
          <mxGeometry x="308" y="115.34883720930232" width="207.89999999999998" height="96.74418604651163" as="geometry" />
        </mxCell>
        <mxCell id="E4WLFZ2hf0M_Z9qAOI7j-50" style="edgeStyle=orthogonalEdgeStyle;rounded=0;orthogonalLoop=1;jettySize=auto;html=1;exitX=1;exitY=0.5;exitDx=0;exitDy=0;entryX=0.5;entryY=0;entryDx=0;entryDy=0;" edge="1" parent="E4WLFZ2hf0M_Z9qAOI7j-53" source="E4WLFZ2hf0M_Z9qAOI7j-37" target="E4WLFZ2hf0M_Z9qAOI7j-49">
          <mxGeometry relative="1" as="geometry" />
        </mxCell>
        <mxCell id="E4WLFZ2hf0M_Z9qAOI7j-51" style="edgeStyle=orthogonalEdgeStyle;rounded=0;orthogonalLoop=1;jettySize=auto;html=1;exitX=1;exitY=0.5;exitDx=0;exitDy=0;entryX=0.5;entryY=1;entryDx=0;entryDy=0;" edge="1" parent="E4WLFZ2hf0M_Z9qAOI7j-53" source="E4WLFZ2hf0M_Z9qAOI7j-39" target="E4WLFZ2hf0M_Z9qAOI7j-49">
          <mxGeometry relative="1" as="geometry" />
        </mxCell>
        <mxCell id="E4WLFZ2hf0M_Z9qAOI7j-54" value="" style="endArrow=classic;html=1;" edge="1" parent="E4WLFZ2hf0M_Z9qAOI7j-53">
          <mxGeometry width="50" height="50" relative="1" as="geometry">
            <mxPoint x="56" y="156.99" as="sourcePoint" />
            <mxPoint x="86" y="156.99" as="targetPoint" />
          </mxGeometry>
        </mxCell>
        <mxCell id="E4WLFZ2hf0M_Z9qAOI7j-55" value="" style="endArrow=classic;html=1;" edge="1" parent="E4WLFZ2hf0M_Z9qAOI7j-53">
          <mxGeometry width="50" height="50" relative="1" as="geometry">
            <mxPoint x="165.2" y="156.99" as="sourcePoint" />
            <mxPoint x="195.2" y="156.99" as="targetPoint" />
          </mxGeometry>
        </mxCell>
        <mxCell id="E4WLFZ2hf0M_Z9qAOI7j-59" value="加权融合" style="text;html=1;align=center;verticalAlign=middle;resizable=0;points=[];autosize=1;fontSize=10.5;" vertex="1" parent="E4WLFZ2hf0M_Z9qAOI7j-53">
          <mxGeometry x="300.1" y="21.58" width="60" height="20" as="geometry" />
        </mxCell>
        <mxCell id="E4WLFZ2hf0M_Z9qAOI7j-60" value="输入" style="text;html=1;align=center;verticalAlign=middle;resizable=0;points=[];autosize=1;fontSize=10.5;" vertex="1" parent="E4WLFZ2hf0M_Z9qAOI7j-53">
          <mxGeometry x="8" y="102.78999999999999" width="40" height="20" as="geometry" />
        </mxCell>
        <mxCell id="E4WLFZ2hf0M_Z9qAOI7j-61" value="输出" style="text;html=1;align=center;verticalAlign=middle;resizable=0;points=[];autosize=1;fontSize=10.5;" vertex="1" parent="E4WLFZ2hf0M_Z9qAOI7j-53">
          <mxGeometry x="520" y="138.42" width="40" height="20" as="geometry" />
        </mxCell>
        <mxCell id="E4WLFZ2hf0M_Z9qAOI7j-57" value="第一层卷积核映射" style="text;html=1;align=center;verticalAlign=middle;resizable=0;points=[];autosize=1;fontSize=10.5;" vertex="1" parent="1">
          <mxGeometry x="205" y="40" width="110" height="20" as="geometry" />
        </mxCell>
        <mxCell id="E4WLFZ2hf0M_Z9qAOI7j-58" value="第二层卷积核映射" style="text;html=1;align=center;verticalAlign=middle;resizable=0;points=[];autosize=1;fontSize=10.5;" vertex="1" parent="1">
          <mxGeometry x="330" y="400" width="110" height="20" as="geometry" />
        </mxCell>
      </root>
    </mxGraphModel>
  </diagram>
</mxfile>
